<?xml version="1.0" encoding="utf-8"?>
<!-- Generator: Adobe Illustrator 24.0.1, SVG Export Plug-In . SVG Version: 6.00 Build 0)  -->
<svg version="1.1" id="Capa_1" xmlns="http://www.w3.org/2000/svg" xmlns:xlink="http://www.w3.org/1999/xlink" x="0px" y="0px"
	 viewBox="0 0 439 196" style="enable-background:new 0 0 439 196;" xml:space="preserve">
<style type="text/css">
	.st0{fill:none;stroke:#9C9B9B;stroke-width:0.5;stroke-miterlimit:10;}
</style>
<g>
	<g>
		<rect x="-1073.23" y="309.82" class="st0" width="267.41" height="267.42"/>
		<line class="st0" x1="-1035.03" y1="309.82" x2="-1035.03" y2="577.23"/>
		<line class="st0" x1="-1015.93" y1="309.82" x2="-1015.93" y2="577.23"/>
		<line class="st0" x1="-1054.13" y1="309.82" x2="-1054.13" y2="577.23"/>
		<line class="st0" x1="-996.83" y1="309.82" x2="-996.83" y2="577.23"/>
		<line class="st0" x1="-977.73" y1="309.82" x2="-977.73" y2="577.23"/>
		<line class="st0" x1="-958.63" y1="309.82" x2="-958.63" y2="577.23"/>
		<line class="st0" x1="-939.53" y1="309.82" x2="-939.53" y2="577.23"/>
		<line class="st0" x1="-920.43" y1="309.82" x2="-920.43" y2="577.23"/>
		<line class="st0" x1="-901.33" y1="309.82" x2="-901.33" y2="577.23"/>
		<line class="st0" x1="-882.23" y1="309.82" x2="-882.23" y2="577.23"/>
		<line class="st0" x1="-863.13" y1="309.82" x2="-863.13" y2="577.23"/>
		<line class="st0" x1="-844.03" y1="309.82" x2="-844.03" y2="577.23"/>
		<line class="st0" x1="-824.93" y1="309.82" x2="-824.93" y2="577.23"/>
		<line class="st0" x1="-805.82" y1="539.03" x2="-1073.23" y2="539.03"/>
		<line class="st0" x1="-805.82" y1="519.93" x2="-1073.23" y2="519.93"/>
		<line class="st0" x1="-805.82" y1="558.13" x2="-1073.23" y2="558.13"/>
		<line class="st0" x1="-805.82" y1="500.83" x2="-1073.23" y2="500.83"/>
		<line class="st0" x1="-805.82" y1="481.73" x2="-1073.23" y2="481.73"/>
		<line class="st0" x1="-805.82" y1="462.63" x2="-1073.23" y2="462.63"/>
		<line class="st0" x1="-805.82" y1="443.53" x2="-1073.23" y2="443.53"/>
		<line class="st0" x1="-805.82" y1="424.43" x2="-1073.23" y2="424.43"/>
		<line class="st0" x1="-805.82" y1="405.32" x2="-1073.23" y2="405.32"/>
		<line class="st0" x1="-805.82" y1="386.22" x2="-1073.23" y2="386.22"/>
		<line class="st0" x1="-805.82" y1="367.12" x2="-1073.23" y2="367.12"/>
		<line class="st0" x1="-805.82" y1="348.02" x2="-1073.23" y2="348.02"/>
		<line class="st0" x1="-805.82" y1="328.92" x2="-1073.23" y2="328.92"/>
	</g>
	<g>
		<polyline class="st0" points="-824.93,309.82 -805.82,348.02 -824.93,386.22 -805.82,424.43 -824.93,462.63 -805.82,500.83 
			-824.93,539.03 -805.82,577.23 		"/>
		<polyline class="st0" points="-844.03,309.82 -824.93,348.02 -844.03,386.22 -824.93,424.43 -844.03,462.63 -824.93,500.83 
			-844.03,539.03 -824.93,577.23 		"/>
		<polyline class="st0" points="-863.13,309.82 -844.03,348.02 -863.13,386.22 -844.03,424.43 -863.13,462.63 -844.03,500.83 
			-863.13,539.03 -844.03,577.23 		"/>
		<polyline class="st0" points="-882.23,309.82 -863.13,348.02 -882.23,386.22 -863.13,424.43 -882.23,462.63 -863.13,500.83 
			-882.23,539.03 -863.13,577.23 		"/>
		<polyline class="st0" points="-901.33,309.82 -882.23,348.02 -901.33,386.22 -882.23,424.43 -901.33,462.63 -882.23,500.83 
			-901.33,539.03 -882.23,577.23 		"/>
		<polyline class="st0" points="-920.43,309.82 -901.33,348.02 -920.43,386.22 -901.33,424.43 -920.43,462.63 -901.33,500.83 
			-920.43,539.03 -901.33,577.23 		"/>
		<polyline class="st0" points="-939.53,309.82 -920.43,348.02 -939.53,386.22 -920.43,424.43 -939.53,462.63 -920.43,500.83 
			-939.53,539.03 -920.43,577.23 		"/>
		<polyline class="st0" points="-958.63,309.82 -939.53,348.02 -958.63,386.22 -939.53,424.43 -958.63,462.63 -939.53,500.83 
			-958.63,539.03 -939.53,577.23 		"/>
		<polyline class="st0" points="-977.73,309.82 -958.63,348.02 -977.73,386.22 -958.63,424.43 -977.73,462.63 -958.63,500.83 
			-977.73,539.03 -958.63,577.23 		"/>
		<polyline class="st0" points="-996.83,309.82 -977.73,348.02 -996.83,386.22 -977.73,424.43 -996.83,462.63 -977.73,500.83 
			-996.83,539.03 -977.73,577.23 		"/>
		<polyline class="st0" points="-1015.93,309.82 -996.83,348.02 -1015.93,386.22 -996.83,424.43 -1015.93,462.63 -996.83,500.83 
			-1015.93,539.03 -996.83,577.23 		"/>
		<polyline class="st0" points="-1035.03,309.82 -1015.93,348.02 -1035.03,386.22 -1015.93,424.43 -1035.03,462.63 -1015.93,500.83 
			-1035.03,539.03 -1015.93,577.23 		"/>
		<polyline class="st0" points="-1054.13,309.82 -1035.03,348.02 -1054.13,386.22 -1035.03,424.43 -1054.13,462.63 -1035.03,500.83 
			-1054.13,539.03 -1035.03,577.23 		"/>
		<polyline class="st0" points="-1073.23,309.82 -1054.13,348.02 -1073.23,386.22 -1054.13,424.43 -1073.23,462.63 -1054.13,500.83 
			-1073.23,539.03 -1054.13,577.23 		"/>
	</g>
	<g>
		<polyline class="st0" points="-824.93,577.23 -805.82,539.03 -824.93,500.83 -805.82,462.63 -824.93,424.43 -805.82,386.22 
			-824.93,348.02 -805.82,309.82 		"/>
		<polyline class="st0" points="-844.03,577.23 -824.93,539.03 -844.03,500.83 -824.93,462.63 -844.03,424.43 -824.93,386.22 
			-844.03,348.02 -824.93,309.82 		"/>
		<polyline class="st0" points="-863.13,577.23 -844.03,539.03 -863.13,500.83 -844.03,462.63 -863.13,424.43 -844.03,386.22 
			-863.13,348.02 -844.03,309.82 		"/>
		<polyline class="st0" points="-882.23,577.23 -863.13,539.03 -882.23,500.83 -863.13,462.63 -882.23,424.43 -863.13,386.22 
			-882.23,348.02 -863.13,309.82 		"/>
		<polyline class="st0" points="-901.33,577.23 -882.23,539.03 -901.33,500.83 -882.23,462.63 -901.33,424.43 -882.23,386.22 
			-901.33,348.02 -882.23,309.82 		"/>
		<polyline class="st0" points="-920.43,577.23 -901.33,539.03 -920.43,500.83 -901.33,462.63 -920.43,424.43 -901.33,386.22 
			-920.43,348.02 -901.33,309.82 		"/>
		<polyline class="st0" points="-939.53,577.23 -920.43,539.03 -939.53,500.83 -920.43,462.63 -939.53,424.43 -920.43,386.22 
			-939.53,348.02 -920.43,309.82 		"/>
		<polyline class="st0" points="-958.63,577.23 -939.53,539.03 -958.63,500.83 -939.53,462.63 -958.63,424.43 -939.53,386.22 
			-958.63,348.02 -939.53,309.82 		"/>
		<polyline class="st0" points="-977.73,577.23 -958.63,539.03 -977.73,500.83 -958.63,462.63 -977.73,424.43 -958.63,386.22 
			-977.73,348.02 -958.63,309.82 		"/>
		<polyline class="st0" points="-996.83,577.23 -977.73,539.03 -996.83,500.83 -977.73,462.63 -996.83,424.43 -977.73,386.22 
			-996.83,348.02 -977.73,309.82 		"/>
		<polyline class="st0" points="-1015.93,577.23 -996.83,539.03 -1015.93,500.83 -996.83,462.63 -1015.93,424.43 -996.83,386.22 
			-1015.93,348.02 -996.83,309.82 		"/>
		<polyline class="st0" points="-1035.03,577.23 -1015.93,539.03 -1035.03,500.83 -1015.93,462.63 -1035.03,424.43 -1015.93,386.22 
			-1035.03,348.02 -1015.93,309.82 		"/>
		<polyline class="st0" points="-1054.13,577.23 -1035.03,539.03 -1054.13,500.83 -1035.03,462.63 -1054.13,424.43 -1035.03,386.22 
			-1054.13,348.02 -1035.03,309.82 		"/>
		<polyline class="st0" points="-1073.23,577.23 -1054.13,539.03 -1073.23,500.83 -1054.13,462.63 -1073.23,424.43 -1054.13,386.22 
			-1073.23,348.02 -1054.13,309.82 		"/>
	</g>
</g>
<g>
	<g>
		<rect x="-778.63" y="309.82" class="st0" width="267.42" height="267.41"/>
		<line class="st0" x1="-511.21" y1="348.02" x2="-778.63" y2="348.02"/>
		<line class="st0" x1="-511.21" y1="367.12" x2="-778.63" y2="367.12"/>
		<line class="st0" x1="-511.21" y1="328.92" x2="-778.63" y2="328.92"/>
		<line class="st0" x1="-511.21" y1="386.22" x2="-778.63" y2="386.22"/>
		<line class="st0" x1="-511.21" y1="405.33" x2="-778.63" y2="405.33"/>
		<line class="st0" x1="-511.21" y1="424.43" x2="-778.63" y2="424.43"/>
		<line class="st0" x1="-511.21" y1="443.53" x2="-778.63" y2="443.53"/>
		<line class="st0" x1="-511.21" y1="462.63" x2="-778.63" y2="462.63"/>
		<line class="st0" x1="-511.21" y1="481.73" x2="-778.63" y2="481.73"/>
		<line class="st0" x1="-511.21" y1="500.83" x2="-778.63" y2="500.83"/>
		<line class="st0" x1="-511.21" y1="519.93" x2="-778.63" y2="519.93"/>
		<line class="st0" x1="-511.21" y1="539.03" x2="-778.63" y2="539.03"/>
		<line class="st0" x1="-511.21" y1="558.13" x2="-778.63" y2="558.13"/>
		<line class="st0" x1="-740.42" y1="577.23" x2="-740.42" y2="309.82"/>
		<line class="st0" x1="-721.32" y1="577.23" x2="-721.32" y2="309.82"/>
		<line class="st0" x1="-759.52" y1="577.23" x2="-759.52" y2="309.82"/>
		<line class="st0" x1="-702.22" y1="577.23" x2="-702.22" y2="309.82"/>
		<line class="st0" x1="-683.12" y1="577.23" x2="-683.12" y2="309.82"/>
		<line class="st0" x1="-664.02" y1="577.23" x2="-664.02" y2="309.82"/>
		<line class="st0" x1="-644.92" y1="577.23" x2="-644.92" y2="309.82"/>
		<line class="st0" x1="-625.82" y1="577.23" x2="-625.82" y2="309.82"/>
		<line class="st0" x1="-606.71" y1="577.23" x2="-606.71" y2="309.82"/>
		<line class="st0" x1="-587.61" y1="577.23" x2="-587.61" y2="309.82"/>
		<line class="st0" x1="-568.51" y1="577.23" x2="-568.51" y2="309.82"/>
		<line class="st0" x1="-549.41" y1="577.23" x2="-549.41" y2="309.82"/>
		<line class="st0" x1="-530.31" y1="577.23" x2="-530.31" y2="309.82"/>
	</g>
	<g>
		<polyline class="st0" points="-511.21,558.13 -549.41,577.23 -587.61,558.13 -625.82,577.23 -664.02,558.13 -702.22,577.23 
			-740.42,558.13 -778.63,577.23 		"/>
		<polyline class="st0" points="-511.21,539.03 -549.41,558.13 -587.61,539.03 -625.82,558.13 -664.02,539.03 -702.22,558.13 
			-740.42,539.03 -778.63,558.13 		"/>
		<polyline class="st0" points="-511.21,519.93 -549.41,539.03 -587.61,519.93 -625.82,539.03 -664.02,519.93 -702.22,539.03 
			-740.42,519.93 -778.63,539.03 		"/>
		<polyline class="st0" points="-511.21,500.83 -549.41,519.93 -587.61,500.83 -625.82,519.93 -664.02,500.83 -702.22,519.93 
			-740.42,500.83 -778.63,519.93 		"/>
		<polyline class="st0" points="-511.21,481.73 -549.41,500.83 -587.61,481.73 -625.82,500.83 -664.02,481.73 -702.22,500.83 
			-740.42,481.73 -778.63,500.83 		"/>
		<polyline class="st0" points="-511.21,462.63 -549.41,481.73 -587.61,462.63 -625.82,481.73 -664.02,462.63 -702.22,481.73 
			-740.42,462.63 -778.63,481.73 		"/>
		<polyline class="st0" points="-511.21,443.53 -549.41,462.63 -587.61,443.53 -625.82,462.63 -664.02,443.53 -702.22,462.63 
			-740.42,443.53 -778.63,462.63 		"/>
		<polyline class="st0" points="-511.21,424.43 -549.41,443.53 -587.61,424.43 -625.82,443.53 -664.02,424.43 -702.22,443.53 
			-740.42,424.43 -778.63,443.53 		"/>
		<polyline class="st0" points="-511.21,405.33 -549.41,424.43 -587.61,405.33 -625.82,424.43 -664.02,405.33 -702.22,424.43 
			-740.42,405.33 -778.63,424.43 		"/>
		<polyline class="st0" points="-511.21,386.22 -549.41,405.33 -587.61,386.22 -625.82,405.33 -664.02,386.22 -702.22,405.33 
			-740.42,386.22 -778.63,405.33 		"/>
		<polyline class="st0" points="-511.21,367.12 -549.41,386.22 -587.61,367.12 -625.82,386.22 -664.02,367.12 -702.22,386.22 
			-740.42,367.12 -778.63,386.22 		"/>
		<polyline class="st0" points="-511.21,348.02 -549.41,367.12 -587.61,348.02 -625.82,367.12 -664.02,348.02 -702.22,367.12 
			-740.42,348.02 -778.63,367.12 		"/>
		<polyline class="st0" points="-511.21,328.92 -549.41,348.02 -587.61,328.92 -625.82,348.02 -664.02,328.92 -702.22,348.02 
			-740.42,328.92 -778.63,348.02 		"/>
		<polyline class="st0" points="-511.21,309.82 -549.41,328.92 -587.61,309.82 -625.82,328.92 -664.02,309.82 -702.22,328.92 
			-740.42,309.82 -778.63,328.92 		"/>
	</g>
	<g>
		<polyline class="st0" points="-778.63,558.13 -740.42,577.23 -702.22,558.13 -664.02,577.23 -625.82,558.13 -587.61,577.23 
			-549.41,558.13 -511.21,577.23 		"/>
		<polyline class="st0" points="-778.63,539.03 -740.42,558.13 -702.22,539.03 -664.02,558.13 -625.82,539.03 -587.61,558.13 
			-549.41,539.03 -511.21,558.13 		"/>
		<polyline class="st0" points="-778.63,519.93 -740.42,539.03 -702.22,519.93 -664.02,539.03 -625.82,519.93 -587.61,539.03 
			-549.41,519.93 -511.21,539.03 		"/>
		<polyline class="st0" points="-778.63,500.83 -740.42,519.93 -702.22,500.83 -664.02,519.93 -625.82,500.83 -587.61,519.93 
			-549.41,500.83 -511.21,519.93 		"/>
		<polyline class="st0" points="-778.63,481.73 -740.42,500.83 -702.22,481.73 -664.02,500.83 -625.82,481.73 -587.61,500.83 
			-549.41,481.73 -511.21,500.83 		"/>
		<polyline class="st0" points="-778.63,462.63 -740.42,481.73 -702.22,462.63 -664.02,481.73 -625.82,462.63 -587.61,481.73 
			-549.41,462.63 -511.21,481.73 		"/>
		<polyline class="st0" points="-778.63,443.53 -740.42,462.63 -702.22,443.53 -664.02,462.63 -625.82,443.53 -587.61,462.63 
			-549.41,443.53 -511.21,462.63 		"/>
		<polyline class="st0" points="-778.63,424.43 -740.42,443.53 -702.22,424.43 -664.02,443.53 -625.82,424.43 -587.61,443.53 
			-549.41,424.43 -511.21,443.53 		"/>
		<polyline class="st0" points="-778.63,405.33 -740.42,424.43 -702.22,405.33 -664.02,424.43 -625.82,405.33 -587.61,424.43 
			-549.41,405.33 -511.21,424.43 		"/>
		<polyline class="st0" points="-778.63,386.22 -740.42,405.33 -702.22,386.22 -664.02,405.33 -625.82,386.22 -587.61,405.33 
			-549.41,386.22 -511.21,405.33 		"/>
		<polyline class="st0" points="-778.63,367.12 -740.42,386.22 -702.22,367.12 -664.02,386.22 -625.82,367.12 -587.61,386.22 
			-549.41,367.12 -511.21,386.22 		"/>
		<polyline class="st0" points="-778.63,348.02 -740.42,367.12 -702.22,348.02 -664.02,367.12 -625.82,348.02 -587.61,367.12 
			-549.41,348.02 -511.21,367.12 		"/>
		<polyline class="st0" points="-778.63,328.92 -740.42,348.02 -702.22,328.92 -664.02,348.02 -625.82,328.92 -587.61,348.02 
			-549.41,328.92 -511.21,348.02 		"/>
		<polyline class="st0" points="-778.63,309.82 -740.42,328.92 -702.22,309.82 -664.02,328.92 -625.82,309.82 -587.61,328.92 
			-549.41,309.82 -511.21,328.92 		"/>
	</g>
</g>
<g>
	<g>
		<rect x="-1367.85" y="309.82" class="st0" width="267.42" height="267.41"/>
		<line class="st0" x1="-1367.85" y1="539.03" x2="-1100.43" y2="539.03"/>
		<line class="st0" x1="-1367.85" y1="519.93" x2="-1100.43" y2="519.93"/>
		<line class="st0" x1="-1367.85" y1="558.13" x2="-1100.43" y2="558.13"/>
		<line class="st0" x1="-1367.85" y1="500.83" x2="-1100.43" y2="500.83"/>
		<line class="st0" x1="-1367.85" y1="481.73" x2="-1100.43" y2="481.73"/>
		<line class="st0" x1="-1367.85" y1="462.63" x2="-1100.43" y2="462.63"/>
		<line class="st0" x1="-1367.85" y1="443.53" x2="-1100.43" y2="443.53"/>
		<line class="st0" x1="-1367.85" y1="424.43" x2="-1100.43" y2="424.43"/>
		<line class="st0" x1="-1367.85" y1="405.33" x2="-1100.43" y2="405.33"/>
		<line class="st0" x1="-1367.85" y1="386.22" x2="-1100.43" y2="386.22"/>
		<line class="st0" x1="-1367.85" y1="367.12" x2="-1100.43" y2="367.12"/>
		<line class="st0" x1="-1367.85" y1="348.02" x2="-1100.43" y2="348.02"/>
		<line class="st0" x1="-1367.85" y1="328.92" x2="-1100.43" y2="328.92"/>
		<line class="st0" x1="-1138.64" y1="309.82" x2="-1138.64" y2="577.23"/>
		<line class="st0" x1="-1157.74" y1="309.82" x2="-1157.74" y2="577.23"/>
		<line class="st0" x1="-1119.53" y1="309.82" x2="-1119.53" y2="577.23"/>
		<line class="st0" x1="-1176.84" y1="309.82" x2="-1176.84" y2="577.23"/>
		<line class="st0" x1="-1195.94" y1="309.82" x2="-1195.94" y2="577.23"/>
		<line class="st0" x1="-1215.04" y1="309.82" x2="-1215.04" y2="577.23"/>
		<line class="st0" x1="-1234.14" y1="309.82" x2="-1234.14" y2="577.23"/>
		<line class="st0" x1="-1253.24" y1="309.82" x2="-1253.24" y2="577.23"/>
		<line class="st0" x1="-1272.34" y1="309.82" x2="-1272.34" y2="577.23"/>
		<line class="st0" x1="-1291.45" y1="309.82" x2="-1291.45" y2="577.23"/>
		<line class="st0" x1="-1310.55" y1="309.82" x2="-1310.55" y2="577.23"/>
		<line class="st0" x1="-1329.65" y1="309.82" x2="-1329.65" y2="577.23"/>
		<line class="st0" x1="-1348.75" y1="309.82" x2="-1348.75" y2="577.23"/>
	</g>
	<g>
		<polyline class="st0" points="-1367.85,348.02 -1329.65,309.82 -1291.45,348.02 -1253.24,309.82 -1215.04,348.02 -1176.84,309.82 
			-1138.64,348.02 -1100.43,309.82 		"/>
		<polyline class="st0" points="-1367.85,386.22 -1329.65,348.02 -1291.45,386.22 -1253.24,348.02 -1215.04,386.22 -1176.84,348.02 
			-1138.64,386.22 -1100.43,348.02 		"/>
		<polyline class="st0" points="-1367.85,424.42 -1329.65,386.22 -1291.45,424.42 -1253.24,386.22 -1215.04,424.42 -1176.84,386.22 
			-1138.64,424.42 -1100.43,386.22 		"/>
		<polyline class="st0" points="-1367.85,462.62 -1329.65,424.42 -1291.45,462.62 -1253.24,424.42 -1215.04,462.62 -1176.84,424.42 
			-1138.64,462.62 -1100.43,424.42 		"/>
		<polyline class="st0" points="-1367.85,500.82 -1329.65,462.62 -1291.45,500.82 -1253.24,462.62 -1215.04,500.82 -1176.84,462.62 
			-1138.64,500.82 -1100.43,462.62 		"/>
		<polyline class="st0" points="-1367.85,539.02 -1329.65,500.82 -1291.45,539.02 -1253.24,500.82 -1215.04,539.02 -1176.84,500.82 
			-1138.64,539.02 -1100.43,500.82 		"/>
		<polyline class="st0" points="-1367.85,577.22 -1329.65,539.02 -1291.45,577.22 -1253.24,539.02 -1215.04,577.22 -1176.84,539.02 
			-1138.64,577.22 -1100.43,539.02 		"/>
	</g>
	<g>
		<polyline class="st0" points="-1100.43,348.02 -1138.64,309.82 -1176.84,348.02 -1215.04,309.82 -1253.24,348.02 -1291.45,309.82 
			-1329.65,348.02 -1367.85,309.82 		"/>
		<polyline class="st0" points="-1100.43,386.22 -1138.64,348.02 -1176.84,386.22 -1215.04,348.02 -1253.24,386.22 -1291.45,348.02 
			-1329.65,386.22 -1367.85,348.02 		"/>
		<polyline class="st0" points="-1100.43,424.42 -1138.64,386.22 -1176.84,424.42 -1215.04,386.22 -1253.24,424.42 -1291.45,386.22 
			-1329.65,424.42 -1367.85,386.22 		"/>
		<polyline class="st0" points="-1100.43,462.62 -1138.64,424.42 -1176.84,462.62 -1215.04,424.42 -1253.24,462.62 -1291.45,424.42 
			-1329.65,462.62 -1367.85,424.42 		"/>
		<polyline class="st0" points="-1100.43,500.82 -1138.64,462.62 -1176.84,500.82 -1215.04,462.62 -1253.24,500.82 -1291.45,462.62 
			-1329.65,500.82 -1367.85,462.62 		"/>
		<polyline class="st0" points="-1100.43,539.02 -1138.64,500.82 -1176.84,539.02 -1215.04,500.82 -1253.24,539.02 -1291.45,500.82 
			-1329.65,539.02 -1367.85,500.82 		"/>
		<polyline class="st0" points="-1100.43,577.22 -1138.64,539.02 -1176.84,577.22 -1215.04,539.02 -1253.24,577.22 -1291.45,539.02 
			-1329.65,577.22 -1367.85,539.02 		"/>
	</g>
</g>
<g>
	<g>
		<rect x="-1073.23" y="602.69" class="st0" width="267.41" height="267.42"/>
	</g>
	<g>
		<polyline class="st0" points="-824.93,602.69 -805.82,640.9 -824.93,679.1 -805.82,717.3 -824.93,755.5 -805.82,793.71 
			-824.93,831.91 -805.82,870.11 		"/>
		<polyline class="st0" points="-844.03,602.69 -824.93,640.9 -844.03,679.1 -824.93,717.3 -844.03,755.5 -824.93,793.71 
			-844.03,831.91 -824.93,870.11 		"/>
		<polyline class="st0" points="-863.13,602.69 -844.03,640.9 -863.13,679.1 -844.03,717.3 -863.13,755.5 -844.03,793.71 
			-863.13,831.91 -844.03,870.11 		"/>
		<polyline class="st0" points="-882.23,602.69 -863.13,640.9 -882.23,679.1 -863.13,717.3 -882.23,755.5 -863.13,793.71 
			-882.23,831.91 -863.13,870.11 		"/>
		<polyline class="st0" points="-901.33,602.69 -882.23,640.9 -901.33,679.1 -882.23,717.3 -901.33,755.5 -882.23,793.71 
			-901.33,831.91 -882.23,870.11 		"/>
		<polyline class="st0" points="-920.43,602.69 -901.33,640.9 -920.43,679.1 -901.33,717.3 -920.43,755.5 -901.33,793.71 
			-920.43,831.91 -901.33,870.11 		"/>
		<polyline class="st0" points="-939.53,602.69 -920.43,640.9 -939.53,679.1 -920.43,717.3 -939.53,755.5 -920.43,793.71 
			-939.53,831.91 -920.43,870.11 		"/>
		<polyline class="st0" points="-958.63,602.69 -939.53,640.9 -958.63,679.1 -939.53,717.3 -958.63,755.5 -939.53,793.71 
			-958.63,831.91 -939.53,870.11 		"/>
		<polyline class="st0" points="-977.73,602.69 -958.63,640.9 -977.73,679.1 -958.63,717.3 -977.73,755.5 -958.63,793.71 
			-977.73,831.91 -958.63,870.11 		"/>
		<polyline class="st0" points="-996.83,602.69 -977.73,640.9 -996.83,679.1 -977.73,717.3 -996.83,755.5 -977.73,793.71 
			-996.83,831.91 -977.73,870.11 		"/>
		<polyline class="st0" points="-1015.93,602.69 -996.83,640.9 -1015.93,679.1 -996.83,717.3 -1015.93,755.5 -996.83,793.71 
			-1015.93,831.91 -996.83,870.11 		"/>
		<polyline class="st0" points="-1035.03,602.69 -1015.93,640.9 -1035.03,679.1 -1015.93,717.3 -1035.03,755.5 -1015.93,793.71 
			-1035.03,831.91 -1015.93,870.11 		"/>
		<polyline class="st0" points="-1054.13,602.69 -1035.03,640.9 -1054.13,679.1 -1035.03,717.3 -1054.13,755.5 -1035.03,793.71 
			-1054.13,831.91 -1035.03,870.11 		"/>
		<polyline class="st0" points="-1073.23,602.69 -1054.13,640.9 -1073.23,679.1 -1054.13,717.3 -1073.23,755.5 -1054.13,793.71 
			-1073.23,831.91 -1054.13,870.11 		"/>
	</g>
	<g>
		<polyline class="st0" points="-824.93,870.11 -805.82,831.91 -824.93,793.71 -805.82,755.5 -824.93,717.3 -805.82,679.1 
			-824.93,640.9 -805.82,602.69 		"/>
		<polyline class="st0" points="-844.03,870.11 -824.93,831.91 -844.03,793.71 -824.93,755.5 -844.03,717.3 -824.93,679.1 
			-844.03,640.9 -824.93,602.69 		"/>
		<polyline class="st0" points="-863.13,870.11 -844.03,831.91 -863.13,793.71 -844.03,755.5 -863.13,717.3 -844.03,679.1 
			-863.13,640.9 -844.03,602.69 		"/>
		<polyline class="st0" points="-882.23,870.11 -863.13,831.91 -882.23,793.71 -863.13,755.5 -882.23,717.3 -863.13,679.1 
			-882.23,640.9 -863.13,602.69 		"/>
		<polyline class="st0" points="-901.33,870.11 -882.23,831.91 -901.33,793.71 -882.23,755.5 -901.33,717.3 -882.23,679.1 
			-901.33,640.9 -882.23,602.69 		"/>
		<polyline class="st0" points="-920.43,870.11 -901.33,831.91 -920.43,793.71 -901.33,755.5 -920.43,717.3 -901.33,679.1 
			-920.43,640.9 -901.33,602.69 		"/>
		<polyline class="st0" points="-939.53,870.11 -920.43,831.91 -939.53,793.71 -920.43,755.5 -939.53,717.3 -920.43,679.1 
			-939.53,640.9 -920.43,602.69 		"/>
		<polyline class="st0" points="-958.63,870.11 -939.53,831.91 -958.63,793.71 -939.53,755.5 -958.63,717.3 -939.53,679.1 
			-958.63,640.9 -939.53,602.69 		"/>
		<polyline class="st0" points="-977.73,870.11 -958.63,831.91 -977.73,793.71 -958.63,755.5 -977.73,717.3 -958.63,679.1 
			-977.73,640.9 -958.63,602.69 		"/>
		<polyline class="st0" points="-996.83,870.11 -977.73,831.91 -996.83,793.71 -977.73,755.5 -996.83,717.3 -977.73,679.1 
			-996.83,640.9 -977.73,602.69 		"/>
		<polyline class="st0" points="-1015.93,870.11 -996.83,831.91 -1015.93,793.71 -996.83,755.5 -1015.93,717.3 -996.83,679.1 
			-1015.93,640.9 -996.83,602.69 		"/>
		<polyline class="st0" points="-1035.03,870.11 -1015.93,831.91 -1035.03,793.71 -1015.93,755.5 -1035.03,717.3 -1015.93,679.1 
			-1035.03,640.9 -1015.93,602.69 		"/>
		<polyline class="st0" points="-1054.13,870.11 -1035.03,831.91 -1054.13,793.71 -1035.03,755.5 -1054.13,717.3 -1035.03,679.1 
			-1054.13,640.9 -1035.03,602.69 		"/>
		<polyline class="st0" points="-1073.23,870.11 -1054.13,831.91 -1073.23,793.71 -1054.13,755.5 -1073.23,717.3 -1054.13,679.1 
			-1073.23,640.9 -1054.13,602.69 		"/>
	</g>
</g>
<g>
	<g>
		<rect x="-778.63" y="602.7" class="st0" width="267.42" height="267.41"/>
	</g>
	<g>
		<polyline class="st0" points="-511.21,851.01 -549.41,870.11 -587.61,851.01 -625.82,870.11 -664.02,851.01 -702.22,870.11 
			-740.42,851.01 -778.63,870.11 		"/>
		<polyline class="st0" points="-511.21,831.91 -549.41,851.01 -587.61,831.91 -625.82,851.01 -664.02,831.91 -702.22,851.01 
			-740.42,831.91 -778.63,851.01 		"/>
		<polyline class="st0" points="-511.21,812.81 -549.41,831.91 -587.61,812.81 -625.82,831.91 -664.02,812.81 -702.22,831.91 
			-740.42,812.81 -778.63,831.91 		"/>
		<polyline class="st0" points="-511.21,793.7 -549.41,812.81 -587.61,793.7 -625.82,812.81 -664.02,793.7 -702.22,812.81 
			-740.42,793.7 -778.63,812.81 		"/>
		<polyline class="st0" points="-511.21,774.6 -549.41,793.7 -587.61,774.6 -625.82,793.7 -664.02,774.6 -702.22,793.7 
			-740.42,774.6 -778.63,793.7 		"/>
		<polyline class="st0" points="-511.21,755.5 -549.41,774.6 -587.61,755.5 -625.82,774.6 -664.02,755.5 -702.22,774.6 
			-740.42,755.5 -778.63,774.6 		"/>
		<polyline class="st0" points="-511.21,736.4 -549.41,755.5 -587.61,736.4 -625.82,755.5 -664.02,736.4 -702.22,755.5 
			-740.42,736.4 -778.63,755.5 		"/>
		<polyline class="st0" points="-511.21,717.3 -549.41,736.4 -587.61,717.3 -625.82,736.4 -664.02,717.3 -702.22,736.4 
			-740.42,717.3 -778.63,736.4 		"/>
		<polyline class="st0" points="-511.21,698.2 -549.41,717.3 -587.61,698.2 -625.82,717.3 -664.02,698.2 -702.22,717.3 
			-740.42,698.2 -778.63,717.3 		"/>
		<polyline class="st0" points="-511.21,679.1 -549.41,698.2 -587.61,679.1 -625.82,698.2 -664.02,679.1 -702.22,698.2 
			-740.42,679.1 -778.63,698.2 		"/>
		<polyline class="st0" points="-511.21,660 -549.41,679.1 -587.61,660 -625.82,679.1 -664.02,660 -702.22,679.1 -740.42,660 
			-778.63,679.1 		"/>
		<polyline class="st0" points="-511.21,640.9 -549.41,660 -587.61,640.9 -625.82,660 -664.02,640.9 -702.22,660 -740.42,640.9 
			-778.63,660 		"/>
		<polyline class="st0" points="-511.21,621.8 -549.41,640.9 -587.61,621.8 -625.82,640.9 -664.02,621.8 -702.22,640.9 
			-740.42,621.8 -778.63,640.9 		"/>
		<polyline class="st0" points="-511.21,602.7 -549.41,621.8 -587.61,602.7 -625.82,621.8 -664.02,602.7 -702.22,621.8 
			-740.42,602.7 -778.63,621.8 		"/>
	</g>
	<g>
		<polyline class="st0" points="-778.63,851.01 -740.42,870.11 -702.22,851.01 -664.02,870.11 -625.82,851.01 -587.61,870.11 
			-549.41,851.01 -511.21,870.11 		"/>
		<polyline class="st0" points="-778.63,831.91 -740.42,851.01 -702.22,831.91 -664.02,851.01 -625.82,831.91 -587.61,851.01 
			-549.41,831.91 -511.21,851.01 		"/>
		<polyline class="st0" points="-778.63,812.81 -740.42,831.91 -702.22,812.81 -664.02,831.91 -625.82,812.81 -587.61,831.91 
			-549.41,812.81 -511.21,831.91 		"/>
		<polyline class="st0" points="-778.63,793.7 -740.42,812.81 -702.22,793.7 -664.02,812.81 -625.82,793.7 -587.61,812.81 
			-549.41,793.7 -511.21,812.81 		"/>
		<polyline class="st0" points="-778.63,774.6 -740.42,793.7 -702.22,774.6 -664.02,793.7 -625.82,774.6 -587.61,793.7 
			-549.41,774.6 -511.21,793.7 		"/>
		<polyline class="st0" points="-778.63,755.5 -740.42,774.6 -702.22,755.5 -664.02,774.6 -625.82,755.5 -587.61,774.6 
			-549.41,755.5 -511.21,774.6 		"/>
		<polyline class="st0" points="-778.63,736.4 -740.42,755.5 -702.22,736.4 -664.02,755.5 -625.82,736.4 -587.61,755.5 
			-549.41,736.4 -511.21,755.5 		"/>
		<polyline class="st0" points="-778.63,717.3 -740.42,736.4 -702.22,717.3 -664.02,736.4 -625.82,717.3 -587.61,736.4 
			-549.41,717.3 -511.21,736.4 		"/>
		<polyline class="st0" points="-778.63,698.2 -740.42,717.3 -702.22,698.2 -664.02,717.3 -625.82,698.2 -587.61,717.3 
			-549.41,698.2 -511.21,717.3 		"/>
		<polyline class="st0" points="-778.63,679.1 -740.42,698.2 -702.22,679.1 -664.02,698.2 -625.82,679.1 -587.61,698.2 
			-549.41,679.1 -511.21,698.2 		"/>
		<polyline class="st0" points="-778.63,660 -740.42,679.1 -702.22,660 -664.02,679.1 -625.82,660 -587.61,679.1 -549.41,660 
			-511.21,679.1 		"/>
		<polyline class="st0" points="-778.63,640.9 -740.42,660 -702.22,640.9 -664.02,660 -625.82,640.9 -587.61,660 -549.41,640.9 
			-511.21,660 		"/>
		<polyline class="st0" points="-778.63,621.8 -740.42,640.9 -702.22,621.8 -664.02,640.9 -625.82,621.8 -587.61,640.9 
			-549.41,621.8 -511.21,640.9 		"/>
		<polyline class="st0" points="-778.63,602.7 -740.42,621.8 -702.22,602.7 -664.02,621.8 -625.82,602.7 -587.61,621.8 
			-549.41,602.7 -511.21,621.8 		"/>
	</g>
</g>
<g>
	<g>
		<rect x="-1367.85" y="602.7" class="st0" width="267.42" height="267.41"/>
	</g>
	<g>
		<polyline class="st0" points="-1367.85,640.9 -1329.65,602.7 -1291.45,640.9 -1253.24,602.7 -1215.04,640.9 -1176.84,602.7 
			-1138.64,640.9 -1100.43,602.7 		"/>
		<polyline class="st0" points="-1367.85,679.1 -1329.65,640.9 -1291.45,679.1 -1253.24,640.9 -1215.04,679.1 -1176.84,640.9 
			-1138.64,679.1 -1100.43,640.9 		"/>
		<polyline class="st0" points="-1367.85,717.3 -1329.65,679.1 -1291.45,717.3 -1253.24,679.1 -1215.04,717.3 -1176.84,679.1 
			-1138.64,717.3 -1100.43,679.1 		"/>
		<polyline class="st0" points="-1367.85,755.5 -1329.65,717.3 -1291.45,755.5 -1253.24,717.3 -1215.04,755.5 -1176.84,717.3 
			-1138.64,755.5 -1100.43,717.3 		"/>
		<polyline class="st0" points="-1367.85,793.7 -1329.65,755.5 -1291.45,793.7 -1253.24,755.5 -1215.04,793.7 -1176.84,755.5 
			-1138.64,793.7 -1100.43,755.5 		"/>
		<polyline class="st0" points="-1367.85,831.9 -1329.65,793.7 -1291.45,831.89 -1253.24,793.7 -1215.04,831.89 -1176.84,793.7 
			-1138.64,831.89 -1100.43,793.7 		"/>
		<polyline class="st0" points="-1367.85,870.1 -1329.65,831.9 -1291.45,870.09 -1253.24,831.9 -1215.04,870.09 -1176.84,831.9 
			-1138.64,870.09 -1100.43,831.9 		"/>
	</g>
	<g>
		<polyline class="st0" points="-1100.43,640.9 -1138.64,602.7 -1176.84,640.9 -1215.04,602.7 -1253.24,640.9 -1291.45,602.7 
			-1329.65,640.9 -1367.85,602.7 		"/>
		<polyline class="st0" points="-1100.43,679.1 -1138.64,640.9 -1176.84,679.1 -1215.04,640.9 -1253.24,679.1 -1291.45,640.9 
			-1329.65,679.1 -1367.85,640.9 		"/>
		<polyline class="st0" points="-1100.43,717.3 -1138.64,679.1 -1176.84,717.3 -1215.04,679.1 -1253.24,717.3 -1291.45,679.1 
			-1329.65,717.3 -1367.85,679.1 		"/>
		<polyline class="st0" points="-1100.43,755.5 -1138.64,717.3 -1176.84,755.5 -1215.04,717.3 -1253.24,755.5 -1291.45,717.3 
			-1329.65,755.5 -1367.85,717.3 		"/>
		<polyline class="st0" points="-1100.43,793.7 -1138.64,755.5 -1176.84,793.7 -1215.04,755.5 -1253.24,793.7 -1291.45,755.5 
			-1329.65,793.7 -1367.85,755.5 		"/>
		<polyline class="st0" points="-1100.43,831.9 -1138.64,793.7 -1176.84,831.89 -1215.04,793.7 -1253.24,831.89 -1291.45,793.7 
			-1329.65,831.89 -1367.85,793.7 		"/>
		<polyline class="st0" points="-1100.43,870.1 -1138.64,831.9 -1176.84,870.09 -1215.04,831.9 -1253.24,870.09 -1291.45,831.9 
			-1329.65,870.09 -1367.85,831.9 		"/>
	</g>
</g>
<g>
	<path d="M14.48,117.94c0.27,1.47,0.8,2.81,1.6,4.01c1.33,1.87,3.57,4.17,6.72,6.92c3.14,2.74,7.65,4.91,13.53,6.51
		c1.74,0.53,3.67,0.8,5.81,0.8c1.74,0,3.74-0.23,6.01-0.7c2.27-0.47,4.61-1.44,7.02-2.91c4.68-2.94,9.29-6.61,13.83-11.02
		c3.88-3.74,8.02-8.35,12.43-13.83c4.41-5.48,8.35-12.03,11.83-19.64c4.68,2.67,8.78,5.78,12.33,9.32c3.54,3.54,6.45,6.85,8.72,9.92
		c-0.67,2.54-1.24,4.95-1.7,7.22c-0.47,2.27-0.84,4.34-1.1,6.21c0,0.27-0.07,0.47-0.2,0.6c-0.4,3.07-0.54,5.48-0.4,7.22
		c0.13,1.74,0.33,2.94,0.6,3.61l0.4,0.8c0,0.13,0.07,0.2,0.2,0.2c1.07,0.67,2.27,1.27,3.61,1.8c1.07,0.4,2.34,0.7,3.81,0.9
		c1.47,0.2,3.07,0.17,4.81-0.1c0.13-0.14,0.4-0.2,0.8-0.2c1.07-0.27,1.94-0.7,2.61-1.3c0.67-0.6,1.27-1.17,1.8-1.7
		c0.4-0.4,0.47-0.87,0.2-1.4l-0.4-0.8c-1.07-1.07-1.7-2.57-1.9-4.51c-0.2-1.93-0.17-3.84,0.1-5.71c0.93-5.74,2.14-12.26,3.61-19.54
		c1.47-7.28,3.01-14,4.61-20.14c2-7.22,3.81-13.9,5.41-20.05c0.67-2.54,1.37-5.14,2.11-7.82c0.73-2.67,1.43-5.14,2.1-7.42
		c0.67-2.27,1.23-4.27,1.7-6.01c0.47-1.74,0.83-3.01,1.1-3.81c0.27-1.07,0.13-2.07-0.4-3.01c-0.27-0.4-0.54-0.73-0.8-1
		c-1.07-0.8-2.64-1.64-4.71-2.51c-2.07-0.87-4.44-1.3-7.12-1.3c-0.67,0-1,0.27-1,0.8v0.6c0.27,0.67,0.33,1.74,0.2,3.21
		c-0.14,1.47-0.54,3.34-1.2,5.61c-0.4,1.34-1.2,4.04-2.4,8.12c-1.2,4.08-2.61,8.95-4.21,14.63c-1.6,5.68-3.31,11.83-5.11,18.44
		c-1.8,6.61-3.44,13-4.91,19.14c-3.21-4.27-6.45-8.05-9.72-11.33c-3.28-3.27-6.45-6.18-9.52-8.72c1.6-5.08,2.61-9.99,3.01-14.73
		c0.4-4.74,0.4-9.12,0-13.13s-1.1-7.58-2.11-10.72c-1-3.14-2.11-5.64-3.31-7.52c-1.07-1.47-2.41-2.54-4.01-3.21
		c-0.8-0.4-1.6-0.67-2.41-0.8c-1.07-0.27-2.54-0.57-4.41-0.9c-1.87-0.33-3.81-0.63-5.81-0.9c-2.27-0.13-4.08-0.13-5.41,0
		c-0.8,0.14-1.54,0.34-2.2,0.6c-1.6,0.67-3.64,1.77-6.11,3.31c-2.47,1.54-4.78,3.31-6.92,5.31c-2.14,2-3.81,4.11-5.01,6.31
		c-1.2,2.2-1.2,4.31,0,6.31c0.67,0.94,1.4,1.87,2.2,2.81c0.67,0.8,1.54,1.6,2.61,2.4c1.07,0.8,2.27,1.4,3.61,1.8
		c2-4.54,4.21-8.55,6.61-12.03c2-3.07,4.24-5.81,6.71-8.22c2.47-2.41,5.04-3.54,7.72-3.41c1.47,0,2.74,1.07,3.81,3.21
		c1.07,2.14,1.77,4.95,2.11,8.42c0.33,3.48,0.3,7.52-0.1,12.13c-0.4,4.61-1.4,9.52-3.01,14.73c-4.68-2.4-8.82-3.77-12.43-4.11
		c-3.61-0.33-6.35,0.23-8.22,1.7c-2.94,2.4-5.21,5.18-6.82,8.32c-1.6,3.14-2.74,5.65-3.41,7.52v1c0,0.67,0.33,1,1,1
		c0.8,0.14,1.53-0.1,2.2-0.7c0.67-0.6,1.13-1.1,1.4-1.5c3.87-0.93,7.58-1.4,11.13-1.4c3.54,0,6.85,0.33,9.92,1
		c-3.08,6.28-7.08,12.36-12.03,18.24c-4.95,5.88-11.02,11.23-18.24,16.04c-3.74,2.41-7.75,3.98-12.03,4.71
		c-4.28,0.74-8.55,0.84-12.83,0.3c0.53-3.34,1.53-6.61,3.01-9.82c1.2-2.67,3.01-5.34,5.41-8.02c2.4-2.67,5.68-4.74,9.82-6.21
		c1.33-0.53,2.74-0.93,4.21-1.2c1.2-0.27,2.57-0.33,4.11-0.2c1.54,0.14,3.04,0.6,4.51,1.4c0.27,0.27,0.6,0.4,1,0.4
		c0.67,0.27,1.33,0.07,2-0.6c0.27-0.27,0.4-0.53,0.4-0.8c0-0.27,0-0.53,0-0.8c0-0.27-0.07-0.53-0.2-0.8
		c-1.07-1.6-2.91-3.74-5.51-6.41c-2.61-2.67-5.85-4.74-9.72-6.21c-0.54-0.27-1.04-0.4-1.5-0.4c-0.47,0-0.9,0-1.3,0
		c-0.54,0-1,0.07-1.4,0.2c-1.6,0.4-3.84,1.27-6.71,2.61c-2.88,1.34-5.71,3.28-8.52,5.81c-2.81,2.54-5.21,5.88-7.22,10.02
		c-2.01,4.14-2.94,9.22-2.81,15.23C14.21,116.81,14.35,117.41,14.48,117.94z"/>
	<path d="M145.1,85.67c-1.07,2.67-2.14,6.68-3.21,12.03c-1.07,5.35-1.07,11.43,0,18.24c0,0.54,0.14,1.07,0.4,1.6
		c0.27,0.4,0.5,0.87,0.7,1.4c0.2,0.54,0.5,0.94,0.9,1.2c1.07,1.07,2.67,2.27,4.81,3.61c2.14,1.33,5.14,2.34,9.02,3.01h2
		c1.47,0,2.87-0.4,4.21-1.2c1.6-0.94,3.57-2.4,5.91-4.41c2.34-2,4.64-4.61,6.92-7.82c2.27-3.21,4.34-7.12,6.21-11.73
		c1.87-4.61,3.14-10.05,3.81-16.34c0.13-3.47-0.1-6.48-0.7-9.02c-0.6-2.54-1.37-4.68-2.3-6.42c-0.94-1.74-1.94-3.11-3.01-4.11
		c-1.07-1-1.94-1.77-2.61-2.3c-2.81-1.6-5.48-2.27-8.02-2c-2.54,0.27-4.74,1.34-6.61,3.21c-1.47,1.47-2.3,2.98-2.51,4.51
		c-0.2,1.54,0.03,2.44,0.7,2.71c0.27,0.27,0.6,0.33,1,0.2c0.4-0.13,0.73-0.27,1-0.4c0.4-0.13,0.67-0.33,0.8-0.6
		c2.54,0.4,4.41,1.34,5.61,2.81c1.2,1.47,2.07,3.08,2.61,4.81c0.27,0.27,0.6,2.2,1,5.81c0.4,3.61-0.34,8.89-2.2,15.83
		c-0.27,0.8-0.54,1.57-0.8,2.31c-0.27,0.74-0.54,1.44-0.8,2.1c-1.2,2.81-2.57,5.18-4.11,7.12c-1.54,1.94-3.04,3.51-4.51,4.71
		c-1.47,1.2-2.84,2.04-4.11,2.51c-1.27,0.47-2.3,0.64-3.11,0.5c-1.07-0.13-1.77-1.57-2.1-4.31c-0.34-2.74-0.23-6.05,0.3-9.92
		c0.27-2.67,0.73-5.34,1.4-8.02c0.67-2.67,1.6-5.14,2.81-7.42l0.2-0.2c0.67-1.07,1.43-2.1,2.3-3.11c0.87-1,1.97-2.04,3.31-3.11
		c0.53-0.4,0.93-1,1.2-1.8v-0.8c-0.4-1.07-1.24-2.24-2.51-3.51c-1.27-1.27-3.38-2.04-6.31-2.3c-0.67,0-1.4,0.14-2.2,0.4
		c-0.4,0.14-0.67,0.27-0.8,0.4l-0.6,0.6c-0.14,0.14-0.27,0.27-0.4,0.4c-0.13,0.13-0.33,0.27-0.6,0.4c-0.54,0.67-1.24,1.67-2.11,3.01
		C147.14,81.6,146.17,83.4,145.1,85.67z"/>
	<path d="M194.94,120.95c0,0.4,0.2,0.67,0.6,0.8c2.14,1.07,4.11,1.77,5.91,2.11c1.8,0.33,3.17,0.63,4.11,0.9
		c0.27,0,0.53-0.14,0.8-0.4c0.13-0.14,0.2-0.33,0.2-0.6v-0.6c0.27-1.07,0.83-3.27,1.7-6.61c0.87-3.34,2.1-7.15,3.71-11.43
		c1.6-4.27,3.54-8.68,5.81-13.23c2.27-4.54,4.88-8.55,7.82-12.03l-1.8,6.61v1.2c0,0.8,0.33,1.34,1,1.6c0.93,0.54,2.24,1.17,3.91,1.9
		c1.67,0.74,4.04,1.37,7.12,1.9c0.13,0.14,0.33,0.14,0.6,0c0.53-0.27,0.87-0.73,1-1.4c0.67-2.67,1.43-5.61,2.31-8.82
		c0.87-3.21,1.97-6.55,3.31-10.02v-0.2c0-0.13,0.07-0.2,0.2-0.2c0.27-0.93,0.23-1.6-0.1-2.01c-0.34-0.4-0.57-0.67-0.7-0.8h-0.2
		c-1.34-1.2-2.84-2.2-4.51-3.01c-1.67-0.8-3.18-1.47-4.51-2c-0.27-0.13-0.6-0.2-1-0.2c-0.8,0-1.47,0.27-2.01,0.8
		c-0.4,0.67-0.8,1.07-1.2,1.2c0,0.14-0.07,0.2-0.2,0.2c-1.87,2.14-4.41,5.38-7.62,9.72c-3.21,4.34-6.35,9.66-9.42,15.94
		c0.67-2.94,1.4-5.81,2.2-8.62c0.8-2.81,1.53-5.54,2.2-8.22c0-0.13,0.13-0.6,0.4-1.4v-0.4c0.13-0.13,0.2-0.33,0.2-0.6
		c0.13-0.67,0.07-1.17-0.2-1.5c-0.27-0.33-0.47-0.5-0.6-0.5l-0.2-0.2c-1.6-1.47-3.44-2.64-5.51-3.51c-2.07-0.87-3.71-1.5-4.91-1.9
		h-0.2c-0.14,0-0.27-0.07-0.4-0.2h-0.2h-0.6h-0.2c-0.67,0-1.07,0.2-1.2,0.6c-0.14,0.67-0.1,1.14,0.1,1.4c0.2,0.27,0.23,0.74,0.1,1.4
		c-1.07,4.41-2.14,9.05-3.21,13.93c-1.07,4.88-2,9.62-2.81,14.23c-0.8,4.61-1.37,8.99-1.7,13.13c-0.33,4.14-0.37,7.69-0.1,10.62
		V120.95z"/>
	<path d="M250.1,113.73c1,2.41,2.57,4.51,4.71,6.31c2.14,1.8,5.01,3.04,8.62,3.71c1.47,0.27,3.64,0.4,6.51,0.4
		c2.87,0,5.91-0.53,9.12-1.6c3.74-1.33,7.38-3.67,10.92-7.02c1.08-1.02,2.07-2.22,2.99-3.56c-0.02,1.94,0.22,3.7,0.74,5.26
		c0.74,2.2,2.14,4.01,4.21,5.41c2.07,1.4,4.98,2.17,8.72,2.31c4.81,0.13,8.99-0.4,12.53-1.6c3.54-1.2,6.58-2.91,9.12-5.11
		c2.54-2.2,4.58-4.74,6.11-7.62c1.53-2.87,2.77-5.91,3.71-9.12c1.07-4.41,0.8-8.15-0.8-11.23c-1.6-3.07-3.81-5.58-6.61-7.52
		c-2.81-1.93-5.88-3.37-9.22-4.31c-3.34-0.93-6.21-1.4-8.62-1.4c3.47-2,6.45-3.21,8.92-3.61c2.47-0.4,4.47-0.4,6.01,0
		c1.53,0.4,2.67,0.94,3.41,1.6c0.73,0.67,1.1,1.14,1.1,1.4c-0.14,0.27-0.2,0.54-0.2,0.8c0,0.54,0.07,0.8,0.2,0.8
		c0.53,0.14,1.13,0.07,1.8-0.2l0.8-0.4c1.2-1.2,2.01-2.34,2.41-3.41c0.4-1.07,0.6-2.07,0.6-3.01c0-1.07-0.14-2.07-0.4-3.01
		c-1.87-3.21-4.14-4.88-6.82-5.01c-5.35,0.8-10.49,2.17-15.43,4.11c-4.95,1.94-9.29,4.64-13.03,8.12c0,0.13-0.17,0.33-0.5,0.6
		c-0.34,0.27-0.44,0.54-0.3,0.8c0.27,1.2,0.43,2.74,0.5,4.61c0.07,1.87-0.1,3.88-0.5,6.01l-0.4,0.2c0,0.54,0.27,0.8,0.8,0.8
		c3.34,0,6.68-0.07,10.02-0.2c3.34-0.13,6.24,0.1,8.72,0.7c2.47,0.6,4.37,1.67,5.71,3.21c1.33,1.54,1.6,3.98,0.8,7.32
		c-0.54,2-1.27,4.21-2.2,6.61c-0.94,2.41-2.14,4.68-3.61,6.82c-1.47,2.14-3.24,3.91-5.31,5.31c-2.07,1.4-4.51,2.1-7.32,2.1
		c-0.94,0-1.57-0.47-1.9-1.4c-0.34-0.93-0.4-2.14-0.2-3.61c0.2-1.47,0.6-3.11,1.2-4.91c0.6-1.8,1.3-3.57,2.11-5.31l0.8-1
		c0-0.13,0.27-0.6,0.8-1.4l0.2-0.4c0.13-0.13,0.2-0.33,0.2-0.6c0.27-0.53,0.33-1,0.2-1.4c-0.14-0.4-0.27-0.6-0.4-0.6v-0.2
		c-1.2-1.74-3.01-3.24-5.41-4.51c-2.41-1.27-4.14-2.24-5.21-2.91h-0.2l-0.4-0.4h-0.8l-0.2-0.2c-0.67,0-1.07,0.13-1.2,0.4
		c-0.27,0.67-0.37,1.14-0.3,1.4c0.07,0.27-0.03,0.74-0.3,1.4l-0.69,1.63c-0.73-1.06-1.8-2.01-3.25-2.84v1.2c0,0.4-0.07,0.87-0.2,1.4
		c-0.14,0.54-0.27,1.14-0.4,1.8c-0.27,1.07-0.7,2.51-1.3,4.31c-0.6,1.8-1.5,3.71-2.71,5.71c-1.2,2-2.71,3.94-4.51,5.81
		c-1.8,1.87-4.04,3.34-6.71,4.41c-1.07,0.4-2.37,0.77-3.91,1.1c-1.54,0.33-3.11,0.57-4.71,0.7c-1.6,0.14-3.08,0.03-4.41-0.3
		c-1.34-0.33-2.27-0.9-2.81-1.7c-0.27-0.67-0.54-1.6-0.8-2.81c-0.27-1.07-0.43-2.34-0.5-3.81c-0.07-1.47,0.03-3.21,0.3-5.21
		c6.41-3.07,11.53-6.05,15.33-8.92c3.81-2.87,6.68-5.51,8.62-7.92c1.93-2.4,3.14-4.61,3.61-6.61c0.47-2,0.57-3.74,0.3-5.21
		c-0.27-1.47-0.7-2.61-1.3-3.41c-0.6-0.8-0.97-1.27-1.1-1.4c-1.47-1.74-3.08-3.07-4.81-4.01c-1.74-0.93-3.34-1.67-4.81-2.2
		c-1.74-0.53-3.48-0.93-5.21-1.2c-2-0.13-3.91,0.33-5.71,1.4c-1.8,1.07-3.58,2.54-5.31,4.41c-1.74,1.87-3.34,4.04-4.81,6.51
		c-1.47,2.47-2.81,5.11-4.01,7.92c-0.67,1.47-1.34,3.38-2,5.71c-0.67,2.34-1.13,4.91-1.4,7.72c-0.27,2.41-0.3,4.91-0.1,7.52
		C248.49,108.82,249.09,111.33,250.1,113.73z M263.63,95.29c0.4-1.2,0.87-2.47,1.4-3.81c1.47-3.47,3.14-6.61,5.01-9.42
		c1.87-2.81,3.87-4.94,6.01-6.41c1.07-0.8,2.07-1.33,3.01-1.6c0.93-0.27,1.94-0.47,3.01-0.6v0.2c1.74,1.87,2.14,4.01,1.2,6.42
		c-0.94,2.4-2.61,4.74-5.01,7.02c-2.4,2.27-5.11,4.44-8.12,6.51c-3.01,2.07-5.58,3.78-7.72,5.11
		C262.82,97.63,263.22,96.49,263.63,95.29z"/>
	<path d="M375.04,43.78c0-0.16,0.01-0.33,0.01-0.49c3.29-2.91,7.7-6.41,12.6-9.25c1.06-2.33,2.22-4.65,3.47-6.95
		c1.5,0.84,2.98,1.7,4.43,2.58c6.91-3.04,15.12-5.74,23.75-5.8c0.81-0.92,1.65-1.84,2.51-2.74c1.15,0.9,2.27,1.82,3.37,2.76
		c5.04,0.53,5.71,0.54,10.57,1.95c-1.32-1.04-7.29-10.95-21.26-12.95c-12.54-2.17-32.68,3.2-42.46,27.23
		c-0.56-0.31-1.14-0.6-1.73-0.87c1.74-12.74-0.77-35.45-40.62-35.94c0,0,7.57,5.46,14.48,11.78l6.97,0.24l-1.66,4.51
		c4.17,4.29,8.89,9.16,12.45,15.24l3.45,0.22l-0.92,3.9c0.18,0.35,0.34,0.67,0.5,0.97c-0.26,1.36-0.95,2.62-2.07,3.47
		c-23.92-38-62.45-17.64-62.45-17.64c5.66,0.65,6.23,0.85,11.52,1.96l4.22-1.56l1.64,3.14c8.58,2.16,16.19,5.62,22.91,8.67
		l4.64-2.36l3.08,6.38c4.39,2.24,8.63,4.62,12.05,6.6c-0.2,0.76-0.39,1.53-0.61,2.34c-0.08,0.01-0.16,0.02-0.23,0.02
		c-0.3,2.6-0.79,5.15-1.94,7.59c-0.02,0.07-0.03,0.15-0.05,0.22c0.07-0.01,0.15-0.01,0.22-0.02c-0.8,3.21-1.6,6.45-2.4,9.72
		c-0.8,3.28-1.54,6.31-2.2,9.12c-0.67,2.94-1.37,6.08-2.11,9.42c-0.74,3.34-1.33,6.61-1.8,9.82c-0.47,3.21-0.8,6.21-1,9.02
		c-0.2,2.81-0.17,5.15,0.1,7.02c0.4,2.67,2.1,4.88,5.11,6.61c3.01,1.74,6.71,3.14,11.12,4.21c2.41-1.2,4.74-2.94,7.02-5.21
		c1.87-1.87,3.71-4.41,5.51-7.62c1.8-3.21,3.11-7.28,3.91-12.23c-0.13-0.67-0.4-1.33-0.8-2.01c-0.27-0.67-0.7-1.33-1.3-2
		c-0.6-0.67-1.44-1.33-2.51-2c-0.27,3.61-1,7.15-2.2,10.62c-1.07,2.94-2.57,5.88-4.51,8.82c-1.94,2.94-4.64,5.15-8.12,6.61
		c0-3.34,0.27-6.95,0.8-10.82c0.27-3.34,0.77-7.25,1.5-11.73c0.73-4.48,1.77-9.39,3.11-14.73c1.07-3.87,2.17-7.98,3.31-12.33
		c1.13-4.34,2.17-8.39,3.11-12.13c0.12-0.02,0.24-0.03,0.37-0.05c0.31-1.33,0.77-2.61,1.25-3.89c0.12-0.47,0.26-0.94,0.4-1.41
		c0.01-0.11,0.03-0.22,0.04-0.33c1.27-0.15,2.63-0.23,4.87-0.38c1.13-0.88,2.27-1.75,3.44-2.6c0.81,0.93,1.6,1.86,2.37,2.81
		c8.54,0.38,16.55,3.36,23.27,6.63c1.47-0.82,2.97-1.62,4.48-2.39c1.15,2.32,2.2,4.66,3.17,7c10.03,6.32,17.8,15.53,17.75,15.53
		c-6.72-31.59-29.6-39.31-43.5-37.45c-7.64,0.79-12.97,4.04-16.45,6.98C374.62,46.4,374.64,45.02,375.04,43.78z"/>
	<path d="M436,25.92c-0.09-0.02-0.16-0.05-0.24-0.07C435.87,25.94,435.95,25.97,436,25.92z"/>
	<path d="M356.8,143.01c-58.45,8.55-117.29,9.5-176.17,7.88c-46.07-1.27-92.1-3.76-138.16-5.59c-8.77-0.35-17.56-0.28-26.33-0.07
		c-3.51,0.08-7.18,0.59-10.72,4.38c2.65,0.74,4.39,1.5,6.18,1.68c14,1.41,28,3.07,42.03,3.97c38.3,2.45,76.6,5.41,114.95,6.55
		c31.61,0.94,63.33,0.57,94.91-1.06c37.62-1.95,75.02-6.74,111.79-15.46c8.1-1.92,15.99-4.53,22.95-9.31
		c1.42-0.98,2.7-2.16,3.67-3.91c-0.63,0.07-1.34-0.04-1.87,0.23C386.42,139.08,371.55,140.85,356.8,143.01z"/>
	<path d="M27.5,166.92c-0.03,5.9-1.91,10.86-7.29,13.99c-0.41,0.24-0.95,0.49-1.13,0.87c-0.84,1.83-2.6,4.1-2.08,5.46
		c0.64,1.66,3.09,3.29,5,3.65c4.67,0.89,8.72-1.2,12.19-4.23c7.69-6.73,12.72-15.21,16.42-25.32c-7.92-0.68-15.46-1.34-23.34-2.02
		C27.37,162.17,27.51,164.55,27.5,166.92z"/>
	<path d="M73.15,168.63c0.41,4.95-1.3,8.92-5.34,11.86c-1.79,1.31-4,3.05-2.47,5.19c1.06,1.48,3.72,2.29,5.74,2.46
		c1.74,0.15,3.88-0.63,5.35-1.68c7.42-5.33,10.99-13.23,14.48-21.96c-6.5-0.49-12.09-0.91-17.96-1.36
		C73.03,165.15,73.01,166.9,73.15,168.63z"/>
</g>
</svg>
